<svg xmlns="http://www.w3.org/2000/svg" width="323" height="261" fill="none" xmlnsV="https://vecta.io/nano"><g clip-path="url(#B)"><g fill="#ffc9e9"><path d="M166.399 153.06c42.317 0 76.622-34.208 76.622-76.406S208.716.249 166.399.249 89.777 34.457 89.777 76.654s34.305 76.406 76.622 76.406z"/><path d="M210.511 260.808c37.084 0 67.147-29.978 67.147-66.958s-30.063-66.958-67.147-66.958-67.148 29.978-67.148 66.958 30.063 66.958 67.148 66.958z"/></g><path d="M200.138 241.351l-.946-.325-.65 1.891.945.325.651-1.891zm18.959 2.227l-.206-.979h-.001l.207.979zm-19.61-.336c3.606 1.239 10.96 3.186 19.817 1.314l-.414-1.957c-8.362 1.768-15.321-.069-18.752-1.248l-.651 1.891zm19.816 1.314c15.774-3.325 23.589-16.077 24.97-18.405l-1.72-1.021c-1.333 2.247-8.768 14.329-23.662 17.469l.412 1.957z" fill="#fff"/><path d="M36.526 179.152c32.827 17.204 73.424 4.613 90.676-28.122s4.627-73.217-28.201-90.421-73.425-4.613-90.677 28.122-4.626 73.218 28.201 90.421z" fill="#ffc9e9"/><path d="M14.758 118.599l.228-.973-1.949-.452-.228.973 1.949.452zm-1.048 11.342l-.977.219v.001l.977-.22zm-.901-11.794c-.586 2.499-1.232 6.852-.076 12.013l1.954-.439c-1.069-4.771-.472-8.802.071-11.122l-1.949-.452zm-.075 12.014c1.905 8.45 7.413 13.437 9.394 15.075l1.279-1.539c-1.855-1.535-6.958-6.167-8.719-13.977l-1.953.441z" fill="#fff"/><path d="M94.131 246.25c35.398 11.026 73.058-8.65 84.115-43.948s-8.675-72.852-44.072-83.878-73.058 8.65-84.115 43.948 8.675 72.852 44.072 83.878z" fill="#ffc9e9"/><path d="M74.459 146.491l.714.7.001-.001-.714-.699zM65.089 167.1l-.025 1 2 .047.025-.999-2-.048zm18.833-28.048c-2.707 1.085-6.584 3.075-10.177 6.74l1.429 1.398c3.341-3.409 6.953-5.265 9.492-6.283l-.743-1.855zm-10.176 6.74c-8.016 8.162-8.585 18.454-8.657 21.308l2 .048c.069-2.731.624-12.36 8.084-19.957l-1.427-1.399z" fill="#fff"/><path d="M249.124 186.523c36.909 3.589 69.749-23.337 73.349-60.143S299.07 56.828 262.16 53.238s-69.748 23.337-73.348 60.142 23.402 69.553 60.312 73.143z" fill="#ffc9e9"/><path d="M269.86 63.667l-.989-.152-.305 1.976.988.152.306-1.977zm16.103 7.478l-.576.817h0l.576-.818zm-16.409-5.501c3.723.573 9.782 2.055 15.833 6.319l1.152-1.635c-6.387-4.501-12.772-6.059-16.679-6.66l-.306 1.977zm15.833 6.319c11.907 8.382 14.837 21.227 15.481 24.558l1.964-.381c-.67-3.462-3.729-16.969-16.293-25.813l-1.152 1.635z" fill="#fff"/><mask id="A" maskUnits="userSpaceOnUse" x="87.826" y="30.135" width="158" height="125" fill="#000"><path fill="#fff" d="M87.826 30.135h158v125h-158z"/><path d="M228.732 32.135c9.03 12.537 14.338 27.899 14.338 44.519 0 42.196-34.307 76.406-76.622 76.406s-76.622-34.21-76.622-76.406c0-16.608 5.319-31.982 14.337-44.507"/></mask><path d="M227.109 33.304c8.793 12.208 13.961 27.164 13.961 43.35h4c0-17.053-5.448-32.822-14.715-45.688l-3.246 2.338zm13.961 43.35c0 41.086-33.406 74.406-74.622 74.406v4c43.415 0 78.622-35.1 78.622-78.406h-4zm-74.622 74.406c-41.216 0-74.622-33.32-74.622-74.406h-4c0 43.306 35.207 78.406 78.622 78.406v-4zM91.826 76.654c0-16.174 5.179-31.142 13.961-43.339l-3.247-2.337c-9.254 12.853-14.714 28.634-14.714 45.676h4z" fill="#fff" mask="url(#A)"/><path d="M105.208 52.653l-.281.96 1.92.561.281-.96-1.92-.561zm11.995-19.943l-.753-.658h0l.753.658zm-10.075 20.505c1.403-4.798 4.361-12.447 10.828-19.847l-1.506-1.316c-6.718 7.687-9.787 15.629-11.242 20.601l1.92.561zm10.828-19.846c3.604-4.123 7.328-7.061 10.406-9.119l-1.112-1.663c-3.19 2.133-7.055 5.182-10.8 9.465l1.506 1.316z" fill="#fff"/><g fill="#3a2543"><path d="M147.717 71.877a3.9 3.9 0 0 0 3.903-3.892 3.903 3.903 0 1 0-7.806 0 3.9 3.9 0 0 0 3.903 3.892zm36.623 0a3.9 3.9 0 0 0 3.903-3.892 3.9 3.9 0 0 0-3.903-3.891c-2.155 0-3.902 1.742-3.902 3.891a3.9 3.9 0 0 0 3.902 3.892z"/></g><path d="M181.037 83.252c0 8.26-6.717 14.967-15.01 14.967s-15.009-6.698-15.009-14.967" stroke="#3a2543" stroke-width="2" stroke-miterlimit="10"/></g><defs><clipPath id="B"><path fill="#fff" d="M0 0h323v261H0z"/></clipPath></defs></svg>